{"glyphs":{":":{"x_min":0,"x_max":146,"ha":146,"o":"m 0 577 l 94 577 l 94 438 l 0 438 z m 0 163 l 0 302 l 94 302 l 94 163 z"},"$":{"x_min":0,"x_max":356,"ha":356,"o":"m 192 401 q 205 395 226 384 q 247 372 266 352 q 285 333 299 304 q 313 274 313 231 q 313 156 275 107 q 247 69 204 57 l 204 0 l 109 0 l 109 56 q 83 63 66 76 q 48 89 38 102 q 0 149 0 235 l 0 283 l 94 283 l 94 235 q 94 182 112 161 q 116 156 126 150 q 135 144 156 144 q 176 144 188 153 q 201 162 208 176 q 214 189 216 204 q 218 219 218 231 q 218 250 213 263 q 208 276 200 285 q 191 294 179 301 q 167 308 153 315 q 139 320 132 325 q 130 327 126 328 q 123 330 119 332 q 105 340 85 351 q 65 362 46 382 q 0 431 0 504 q 0 542 10 574 q 19 605 36 630 q 63 667 109 683 l 109 739 l 204 739 l 204 684 q 230 676 247 664 q 264 651 275 638 q 313 589 313 504 l 313 457 l 218 457 l 218 504 q 218 557 201 579 q 196 584 186 590 q 177 595 156 595 q 135 595 122 584 q 110 573 104 558 q 97 543 96 528 q 94 512 94 504 q 94 485 99 472 q 104 459 113 449 q 122 439 134 431 q 147 423 162 416 q 167 414 172 412 q 176 409 180 406 q 186 404 192 401 z"},"?":{"x_min":0,"x_max":364,"ha":364,"o":"m 313 533 l 312 533 q 311 493 298 460 q 286 426 270 400 q 253 373 235 353 q 217 333 204 320 l 192 308 q 181 294 179 272 q 177 250 177 212 l 177 162 l 82 162 l 82 212 q 82 234 82 256 q 83 277 86 296 q 90 316 98 334 q 106 352 120 369 q 124 373 128 378 q 132 382 137 387 q 147 397 161 412 q 175 427 188 446 q 200 465 208 488 q 217 511 218 538 q 218 553 214 572 q 211 590 204 606 q 197 622 186 632 q 174 643 156 643 q 149 643 138 642 q 128 640 118 630 q 108 619 101 596 q 94 574 94 533 l 94 486 l 0 486 l 0 533 q 0 624 36 677 q 78 737 156 737 q 194 737 226 720 q 257 702 278 668 q 310 617 312 542 l 313 542 z m 82 106 l 176 106 l 176 0 l 82 0 z"},"<":{"x_min":0,"x_max":833,"ha":833,"o":""},"'":{"x_min":0,"x_max":158,"ha":158,"o":"m 0 737 l 94 737 l 94 586 l 0 586 z"},"=":{"x_min":0,"x_max":833,"ha":833,"o":"m 307 527 l 307 433 l 0 433 l 0 527 z m 307 307 l 307 213 l 0 213 l 0 307 z"},"a":{"x_min":0,"x_max":437,"ha":437,"o":"m 97 0 l 0 0 l 170 737 l 245 737 l 417 0 l 319 0 l 272 206 l 144 206 z m 208 481 l 166 300 l 250 300 z"},"L":{"x_min":0,"x_max":356,"ha":356,"o":"m 321 1 l 0 1 l 0 738 l 94 738 l 94 95 l 321 95 l 321 1 l 321 1 z"},"3":{"x_min":0,"x_max":360,"ha":360,"o":"m 250 363 q 272 343 292 304 q 313 266 313 205 q 313 164 304 130 q 295 95 278 68 q 235 0 156 0 q 78 0 35 62 q 18 89 9 126 q 0 162 0 210 l 0 257 l 94 257 l 94 210 q 94 168 100 146 q 107 125 114 115 q 119 107 128 100 q 137 94 156 94 q 178 94 190 109 q 203 124 209 143 q 215 162 216 180 q 218 198 218 205 q 218 238 208 260 q 198 282 184 296 q 171 309 156 315 q 140 321 130 321 l 83 321 l 84 321 l 84 415 l 130 415 q 140 415 156 421 q 171 427 184 440 q 198 454 208 476 q 218 498 218 531 q 218 535 216 553 q 215 571 209 591 q 203 611 190 627 q 178 643 156 643 q 150 643 140 641 q 129 639 119 628 q 109 617 102 594 q 94 570 94 526 l 94 479 l 0 479 l 0 526 q 0 621 35 674 q 77 737 156 737 q 235 737 278 669 q 313 614 313 531 q 313 470 292 432 q 272 393 250 373 l 245 368 q 247 367 248 366 q 248 365 250 363 z"},";":{"x_min":0,"x_max":158,"ha":158,"o":"m 0 577 l 94 577 l 94 438 l 0 438 z m 0 206 l 0 302 l 94 302 l 94 111 z"},"J":{"x_min":0,"x_max":405,"ha":405,"o":"m 165 0 q 115 0 85 18 q 55 36 40 54 q 0 104 0 196 l 0 244 l 94 244 l 94 196 q 94 158 102 137 q 109 116 120 106 q 131 97 143 96 q 155 94 165 94 q 190 94 201 100 q 212 107 217 114 q 236 138 236 196 l 236 737 l 330 737 l 330 196 q 330 104 290 54 q 276 36 246 18 q 216 0 165 0 z"},"V":{"x_min":0,"x_max":461,"ha":461,"o":"m 345 738 l 442 738 l 257 1 l 183 1 l 0 738 l 97 738 l 220 243 l 345 738 z"},"\"":{"x_min":0,"x_max":283,"ha":283,"o":"m 0 586 l 0 737 l 94 737 l 94 586 z m 139 737 l 233 737 l 233 586 l 139 586 z"},"7":{"x_min":0,"x_max":429,"ha":429,"o":"m 12 0 l 283 643 l 0 643 l 0 737 l 387 737 l 387 648 l 115 0 l 12 0 z"},"S":{"x_min":0,"x_max":397,"ha":397,"o":"m 176 1 q 88 1 43 58 q 0 111 0 210 l 0 257 l 94 257 l 94 210 q 94 145 117 117 q 122 110 135 102 q 148 95 176 95 q 203 95 219 106 q 235 118 244 134 q 252 151 254 170 q 257 190 257 205 q 257 231 249 249 q 241 267 228 280 q 215 292 199 300 q 183 309 167 316 l 149 324 q 133 331 108 344 q 84 356 60 379 q 0 437 0 527 q 0 574 12 613 q 25 652 48 680 q 72 707 104 722 q 137 738 176 738 q 230 738 262 719 q 293 700 309 680 q 352 625 352 527 l 352 480 l 257 480 l 257 527 q 257 570 248 594 q 240 618 227 628 q 214 639 200 641 q 186 643 176 643 q 147 643 131 629 q 115 615 106 596 q 98 576 96 556 q 94 537 94 527 q 94 501 102 482 q 110 464 123 450 q 136 437 152 428 q 169 418 187 411 l 203 404 q 217 398 242 386 q 266 375 290 352 q 352 295 352 205 q 352 120 310 64 q 261 1 176 1 z"},"}":{"x_min":0,"x_max":833,"ha":833,"o":""},"Z":{"x_min":0,"x_max":457,"ha":457,"o":"m 122 94 l 396 94 l 396 0 l 16 0 l 16 92 l 274 643 l 0 643 l 0 737 l 380 737 l 380 646 l 122 94 z"},"x":{"x_min":0,"x_max":498,"ha":498,"o":"m 454 737 l 279 369 l 452 0 l 348 0 l 227 258 l 105 0 l 0 0 l 174 369 l 3 737 l 108 737 l 227 480 l 349 737 l 454 737 z"},")":{"x_min":0,"x_max":214,"ha":214,"o":"m 52 724 q 58 720 76 703 q 94 686 114 644 q 163 542 163 364 q 163 276 151 206 q 139 135 114 83 q 95 41 77 23 q 59 5 53 1 l 2 80 q 1 80 0 79 q 0 79 11 92 q 22 104 34 136 q 47 168 58 223 q 68 278 68 364 q 68 445 58 498 q 49 552 37 584 q 25 615 14 628 q 3 642 1 644 z"},"&":{"x_min":0,"x_max":506,"ha":506,"o":"m 183 2 q 142 2 107 18 q 72 33 47 62 q 0 118 0 199 q 0 238 10 268 q 19 297 34 320 q 50 342 69 360 q 88 377 107 393 q 111 396 114 399 q 118 402 121 405 q 112 420 102 439 q 93 458 85 480 q 77 502 72 524 q 66 547 66 570 q 66 644 87 683 q 118 739 183 739 q 254 739 283 674 q 294 650 296 622 q 299 594 299 570 q 299 528 288 488 q 278 449 258 416 q 253 408 249 402 q 245 396 241 391 l 320 257 q 322 274 322 290 q 322 307 322 321 l 322 369 l 417 369 l 417 321 q 417 284 412 234 q 408 185 389 138 l 474 2 l 362 2 l 330 52 q 272 2 183 2 z m 171 639 q 167 632 164 617 q 161 602 161 570 q 161 550 168 527 q 176 504 187 483 q 194 500 199 522 q 204 543 204 570 q 204 574 204 582 q 204 591 203 600 q 202 610 200 620 q 199 629 196 636 q 194 641 192 642 q 190 644 183 644 q 176 644 174 643 q 173 642 171 639 z m 168 321 q 151 306 137 294 q 123 281 114 268 q 104 254 99 238 q 94 221 94 199 q 94 181 99 162 q 104 144 114 130 q 125 115 142 106 q 159 96 183 96 q 247 96 280 136 l 171 324 z"},"_":{"x_min":0,"x_max":465,"ha":465,"o":"m 467 -36 l 0 -36 l 0 0 l 467 0 z m 0 -59 l 467 -59 l 467 -95 l 0 -95 z"},"v":{"x_min":0,"x_max":461,"ha":461,"o":"m 345 738 l 442 738 l 257 1 l 183 1 l 0 738 l 97 738 l 220 243 l 345 738 z"},"O":{"x_min":0,"x_max":405,"ha":405,"o":"m 175 1 q 122 1 90 20 q 58 39 42 59 q 0 113 0 211 l 0 528 q 0 626 42 680 q 50 690 62 700 q 73 710 90 718 q 106 727 127 732 q 148 738 175 738 q 229 738 260 719 q 292 700 308 680 q 350 626 350 528 l 350 211 q 350 113 308 59 q 292 39 260 20 q 229 1 175 1 z m 175 643 q 164 643 150 641 q 137 639 124 628 q 111 618 102 594 q 94 571 94 528 l 94 211 q 94 167 102 144 q 111 120 124 110 q 137 99 150 97 q 164 95 175 95 q 185 95 199 97 q 213 99 226 110 q 239 120 248 144 q 256 167 256 211 l 256 528 q 256 571 248 594 q 239 618 226 628 q 213 639 199 641 q 185 643 175 643 z"},"(":{"x_min":0,"x_max":206,"ha":206,"o":"m 111 1 q 105 5 87 22 q 69 39 49 81 q 24 132 12 202 q 0 273 0 361 q 0 538 48 642 q 68 684 86 702 q 104 720 110 724 l 161 645 q 162 645 163 646 q 163 646 152 634 q 141 621 128 589 q 115 557 104 502 q 94 446 94 361 q 94 280 104 226 q 114 173 126 142 q 138 110 149 96 q 160 83 162 81 z"},"C":{"x_min":0,"x_max":388,"ha":388,"o":"m 175 0 q 148 0 127 6 q 106 11 90 20 q 73 28 62 38 q 50 49 42 59 q 0 113 0 211 l 0 527 q 0 625 42 679 q 58 699 90 718 q 121 737 175 737 q 229 737 260 718 q 291 699 307 679 q 350 624 350 527 l 350 480 l 255 480 l 255 527 q 255 570 246 594 q 238 618 226 628 q 213 639 199 641 q 185 643 175 643 q 164 643 150 641 q 137 639 124 628 q 111 618 102 594 q 94 570 94 527 l 94 211 q 94 146 117 117 q 122 110 135 102 q 148 94 175 94 q 202 94 214 102 q 227 110 233 117 q 255 147 255 211 l 255 258 l 350 258 l 350 211 q 350 114 307 59 q 291 39 260 20 q 229 0 175 0 z"},"W":{"x_min":0,"x_max":720,"ha":720,"o":"m 588 737 l 685 737 l 522 0 l 446 0 l 343 471 l 239 0 l 163 0 l 0 737 l 97 737 l 201 267 l 305 737 l 381 737 l 484 267 l 588 737 z"},"A":{"x_min":0,"x_max":437,"ha":437,"o":"m 97 0 l 0 0 l 170 737 l 245 737 l 417 0 l 319 0 l 272 206 l 144 206 z m 208 481 l 166 300 l 250 300 z"},"f":{"x_min":0,"x_max":372,"ha":372,"o":"m 305 643 l 94 643 l 94 416 l 305 416 l 305 322 l 94 322 l 94 0 l 0 0 l 0 737 l 305 737 l 305 643 z"},"Q":{"x_min":0,"x_max":405,"ha":405,"o":"m 296 -44 l 248 14 q 233 8 215 4 q 197 0 175 0 q 148 0 127 6 q 106 11 90 20 q 73 29 62 40 q 50 51 42 61 q 0 116 0 214 l 0 531 q 0 598 18 639 q 36 680 62 702 q 89 724 120 731 q 150 738 175 738 q 199 738 230 731 q 260 724 287 702 q 314 680 332 639 q 350 598 350 531 l 350 214 q 350 130 318 77 l 419 -44 z m 182 95 l 111 183 l 229 183 l 250 157 q 255 182 255 214 l 255 531 q 255 570 248 592 q 241 614 230 626 q 218 637 204 640 q 190 643 175 643 q 160 643 146 640 q 131 637 120 626 q 108 614 101 592 q 94 570 94 531 l 94 214 q 94 148 117 119 q 123 111 136 103 q 148 95 175 95 z"},"w":{"x_min":0,"x_max":720,"ha":720,"o":"m 588 737 l 685 737 l 522 0 l 446 0 l 343 471 l 239 0 l 163 0 l 0 737 l 97 737 l 201 267 l 305 737 l 381 737 l 484 267 l 588 737 z"},"-":{"x_min":0,"x_max":376,"ha":376,"o":"m 307 417 l 307 323 l 0 323 l 0 417 l 307 417 z"},"E":{"x_min":0,"x_max":372,"ha":372,"o":"m 305 643 l 94 643 l 94 416 l 305 416 l 305 322 l 94 322 l 94 94 l 305 94 l 305 0 l 0 0 l 0 737 l 305 737 l 305 643 z"},"s":{"x_min":0,"x_max":397,"ha":397,"o":"m 176 1 q 88 1 43 58 q 0 111 0 210 l 0 257 l 94 257 l 94 210 q 94 145 117 117 q 122 110 135 102 q 148 95 176 95 q 203 95 219 106 q 235 118 244 134 q 252 151 254 170 q 257 190 257 205 q 257 231 249 249 q 241 267 228 280 q 215 292 199 300 q 183 309 167 316 l 149 324 q 133 331 108 344 q 84 356 60 379 q 0 437 0 527 q 0 574 12 613 q 25 652 48 680 q 72 707 104 722 q 137 738 176 738 q 230 738 262 719 q 293 700 309 680 q 352 625 352 527 l 352 480 l 257 480 l 257 527 q 257 570 248 594 q 240 618 227 628 q 214 639 200 641 q 186 643 176 643 q 147 643 131 629 q 115 615 106 596 q 98 576 96 556 q 94 537 94 527 q 94 501 102 482 q 110 464 123 450 q 136 437 152 428 q 169 418 187 411 l 203 404 q 217 398 242 386 q 266 375 290 352 q 352 295 352 205 q 352 120 310 64 q 261 1 176 1 z"},">":{"x_min":0,"x_max":833,"ha":833,"o":""},"l":{"x_min":0,"x_max":356,"ha":356,"o":"m 321 1 l 0 1 l 0 738 l 94 738 l 94 95 l 321 95 l 321 1 l 321 1 z"},"8":{"x_min":0,"x_max":388,"ha":388,"o":"m 296 357 q 334 305 334 208 q 334 157 324 120 q 315 84 296 58 q 252 0 167 0 q 81 0 38 58 q 0 109 0 208 q 0 307 38 357 q 40 360 42 363 q 45 366 47 369 q 44 372 38 380 q 0 430 0 530 q 0 629 38 679 q 80 737 167 737 q 253 737 296 679 q 334 627 334 530 q 334 432 296 380 q 290 372 287 369 z m 167 643 q 155 643 142 641 q 129 639 118 628 q 108 618 101 595 q 94 572 94 530 q 94 487 101 464 q 108 441 118 430 q 129 420 142 418 q 155 416 167 416 q 179 416 192 418 q 204 420 214 430 q 225 441 232 464 q 239 487 239 530 q 239 572 232 595 q 225 618 214 628 q 204 639 192 641 q 179 643 167 643 z m 167 94 q 179 94 192 96 q 204 98 214 108 q 225 119 232 142 q 239 165 239 208 q 239 250 233 272 q 227 293 220 302 q 215 309 204 316 q 193 322 167 322 q 141 322 130 316 q 119 309 114 302 q 107 293 100 272 q 94 250 94 208 q 94 165 101 142 q 108 119 118 108 q 129 98 142 96 q 155 94 167 94 z"},"\\":{"x_min":0,"x_max":384,"ha":384,"o":"m 101 737 l 374 0 l 273 0 l 0 737 l 101 737 z"},"e":{"x_min":0,"x_max":372,"ha":372,"o":"m 305 643 l 94 643 l 94 416 l 305 416 l 305 322 l 94 322 l 94 94 l 305 94 l 305 0 l 0 0 l 0 737 l 305 737 l 305 643 z"},"b":{"x_min":0,"x_max":376,"ha":376,"o":"m 272 369 q 278 363 280 359 q 323 307 323 207 q 323 106 280 56 q 235 0 142 0 l 94 0 l 0 0 l 0 94 l 0 737 l 142 737 q 236 737 280 681 q 323 631 323 530 q 323 430 280 378 q 278 375 272 369 z m 94 416 l 142 416 q 174 416 188 424 q 202 431 207 438 q 228 463 228 530 q 228 569 222 592 q 215 614 204 626 q 192 637 176 640 q 160 643 142 643 l 94 643 z m 142 94 q 160 94 176 97 q 192 100 204 112 q 215 123 222 146 q 228 168 228 207 q 228 247 221 270 q 214 293 202 304 q 191 316 176 319 q 160 322 142 322 l 94 322 l 94 94 z"},"%":{"x_min":0,"x_max":615,"ha":615,"o":"m 453 363 q 477 363 498 354 q 519 345 534 328 q 549 312 558 290 q 566 267 566 240 l 566 154 q 566 127 558 104 q 549 82 534 66 q 519 49 498 40 q 477 31 453 31 q 403 31 371 66 q 339 100 339 154 l 339 240 q 339 294 371 328 q 403 363 453 363 z m 472 240 q 472 269 453 269 q 434 269 434 240 l 434 154 q 434 125 453 125 q 472 125 472 154 z m 227 499 q 227 472 218 450 q 210 427 195 410 q 180 394 159 385 q 138 376 113 376 q 64 376 32 410 q 0 445 0 499 l 0 585 q 0 612 8 634 q 17 657 32 674 q 47 690 68 699 q 89 708 113 708 q 163 708 195 674 q 227 639 227 585 z m 94 499 q 94 470 113 470 q 132 470 132 499 l 132 585 q 132 614 113 614 q 94 614 94 585 z m 471 739 l 198 2 l 97 2 l 370 739 z"},"m":{"x_min":0,"x_max":538,"ha":538,"o":"m 94 354 l 94 1 l 0 1 l 0 738 l 83 738 l 232 219 l 380 738 l 463 738 l 463 1 l 369 1 l 369 354 l 267 1 l 196 1 l 94 354 z"},"#":{"x_min":0,"x_max":571,"ha":571,"o":"m 113 228 l -20 228 l -20 323 l 132 323 l 150 417 l 11 417 l 11 512 l 169 512 l 213 739 l 309 739 l 265 512 l 342 512 l 385 739 l 481 739 l 438 512 l 552 512 l 552 417 l 420 417 l 401 323 l 521 323 l 521 228 l 383 228 l 339 0 l 243 0 l 287 228 l 210 228 l 165 0 l 69 0 z m 228 323 l 305 323 l 324 417 l 247 417 z"},",":{"x_min":0,"x_max":158,"ha":158,"o":"m 94 -87 l 0 3 l 0 106 l 94 106 l 94 -87 l 94 -87 z"},"n":{"x_min":0,"x_max":425,"ha":425,"o":"m 94 447 l 94 1 l 0 1 l 0 738 l 79 738 l 259 292 l 259 738 l 354 738 l 354 1 l 274 1 l 94 447 z"},"h":{"x_min":0,"x_max":409,"ha":409,"o":"m 236 737 l 331 737 l 331 0 l 236 0 l 236 321 l 94 321 l 94 0 l 0 0 l 0 737 l 94 737 l 94 416 l 236 416 l 236 737 z"},"z":{"x_min":0,"x_max":457,"ha":457,"o":"m 122 94 l 396 94 l 396 0 l 16 0 l 16 92 l 274 643 l 0 643 l 0 737 l 380 737 l 380 646 l 122 94 z"},"B":{"x_min":0,"x_max":376,"ha":376,"o":"m 272 369 q 278 363 280 359 q 323 307 323 207 q 323 106 280 56 q 235 0 142 0 l 94 0 l 0 0 l 0 94 l 0 737 l 142 737 q 236 737 280 681 q 323 631 323 530 q 323 430 280 378 q 278 375 272 369 z m 94 416 l 142 416 q 174 416 188 424 q 202 431 207 438 q 228 463 228 530 q 228 569 222 592 q 215 614 204 626 q 192 637 176 640 q 160 643 142 643 l 94 643 z m 142 94 q 160 94 176 97 q 192 100 204 112 q 215 123 222 146 q 228 168 228 207 q 228 247 221 270 q 214 293 202 304 q 191 316 176 319 q 160 322 142 322 l 94 322 l 94 94 z"},"K":{"x_min":0,"x_max":449,"ha":449,"o":"m 410 1 l 302 1 l 134 303 l 95 242 l 95 1 l 1 1 l 1 268 l 0 268 l 1 270 l 1 738 l 95 738 l 95 416 l 304 738 l 417 738 l 193 393 l 410 1 z"},"R":{"x_min":0,"x_max":417,"ha":417,"o":"m 286 363 q 313 337 328 301 q 342 265 342 219 l 342 1 l 247 1 l 247 219 q 247 316 153 316 l 106 316 l 94 316 l 94 1 l 0 1 l 0 738 l 153 738 q 248 738 296 682 q 340 631 340 528 q 340 426 296 373 q 294 371 292 368 q 289 365 286 363 z m 153 411 q 191 411 206 420 q 220 429 224 434 q 246 462 246 528 q 246 565 240 588 q 234 610 222 622 q 211 635 194 639 q 176 643 153 643 l 94 643 l 94 411 l 106 411 z"},"T":{"x_min":0,"x_max":461,"ha":461,"o":"m 417 738 l 417 643 l 256 643 l 256 1 l 161 1 l 161 643 l 0 643 l 0 738 l 417 738 z"},"P":{"x_min":0,"x_max":384,"ha":384,"o":"m 94 1 l 0 1 l 0 738 l 153 738 q 247 738 296 683 q 341 630 341 531 q 341 430 296 378 q 248 322 153 322 l 94 322 z m 94 417 l 153 417 q 192 417 206 426 q 220 435 224 440 q 246 463 246 531 q 246 567 240 589 q 234 611 222 623 q 211 635 194 639 q 176 643 153 643 l 94 643 z"},"|":{"x_min":0,"x_max":202,"ha":202,"o":"m 124 0 l 30 0 l 30 737 l 124 737 l 124 0 l 124 0 z"},"t":{"x_min":0,"x_max":461,"ha":461,"o":"m 417 738 l 417 643 l 256 643 l 256 1 l 161 1 l 161 643 l 0 643 l 0 738 l 417 738 z"},"M":{"x_min":0,"x_max":538,"ha":538,"o":"m 94 354 l 94 1 l 0 1 l 0 738 l 83 738 l 232 219 l 380 738 l 463 738 l 463 1 l 369 1 l 369 354 l 267 1 l 196 1 l 94 354 z"},"g":{"x_min":0,"x_max":413,"ha":413,"o":"m 175 0 q 122 0 90 19 q 59 38 43 58 q 0 111 0 210 l 0 528 q 0 627 43 680 q 88 737 175 737 q 263 737 308 680 q 351 627 351 528 l 351 481 l 256 481 l 256 528 q 256 568 249 591 q 242 614 230 626 q 219 637 204 640 q 190 643 175 643 q 160 643 146 640 q 131 637 120 626 q 108 614 101 591 q 94 568 94 528 l 94 210 q 94 166 102 142 q 111 119 124 108 q 137 98 150 96 q 164 94 175 94 q 186 94 200 96 q 214 98 226 108 q 239 119 248 142 q 256 166 256 210 l 256 266 l 142 266 l 142 361 l 351 361 l 351 210 q 351 111 308 58 q 292 38 260 19 q 229 0 175 0 z"},"j":{"x_min":0,"x_max":405,"ha":405,"o":"m 165 0 q 115 0 85 18 q 55 36 40 54 q 0 104 0 196 l 0 244 l 94 244 l 94 196 q 94 158 102 137 q 109 116 120 106 q 131 97 143 96 q 155 94 165 94 q 190 94 201 100 q 212 107 217 114 q 236 138 236 196 l 236 737 l 330 737 l 330 196 q 330 104 290 54 q 276 36 246 18 q 216 0 165 0 z"},"i":{"x_min":0,"x_max":202,"ha":202,"o":"m 124 0 l 30 0 l 30 737 l 124 737 l 124 0 l 124 0 z"},"y":{"x_min":0,"x_max":506,"ha":506,"o":"m 377 737 l 485 737 l 274 357 l 274 0 l 180 0 l 180 357 l -30 737 l 78 737 l 227 467 l 377 737 z"},"@":{"x_min":0,"x_max":692,"ha":692,"o":"m 567 188 l 623 112 l 585 84 q 531 46 466 26 q 401 6 333 6 q 276 6 222 20 q 169 33 123 62 q 43 110 7 192 q -32 279 -14 393 q 6 517 87 600 q 123 637 168 662 q 214 686 265 697 q 313 707 360 704 q 407 700 449 684 q 491 668 526 640 q 561 613 586 575 q 603 547 614 512 q 625 476 628 436 q 630 398 625 362 q 620 325 607 294 q 595 262 569 236 q 543 210 508 192 q 474 175 440 170 q 407 164 380 171 q 339 183 323 218 q 309 216 296 216 q 283 215 272 215 q 203 215 169 254 q 133 295 143 373 q 152 445 187 483 q 227 528 297 528 q 311 528 326 526 q 342 525 359 520 l 360 531 l 454 515 l 446 468 q 446 468 444 456 q 442 443 439 424 q 436 405 432 382 q 428 358 424 335 q 420 312 417 292 q 414 273 412 262 q 419 262 430 264 q 440 266 454 272 q 478 282 496 297 q 513 312 519 329 q 528 351 532 378 q 535 404 533 430 q 531 457 524 482 q 518 506 506 524 q 489 549 466 568 q 442 587 413 598 q 384 608 351 610 q 318 612 284 605 q 202 588 148 528 q 93 468 79 378 q 66 298 90 238 q 113 178 173 142 q 211 119 258 108 q 304 98 352 100 q 400 103 446 118 q 492 134 529 161 z m 272 309 q 307 309 313 315 q 318 320 324 338 q 331 356 339 401 q 341 414 340 419 q 340 424 339 426 q 336 428 326 430 q 315 433 297 433 q 286 433 276 431 q 267 429 259 422 q 251 415 245 401 q 239 387 236 362 q 232 324 240 316 q 242 314 250 312 q 258 309 272 309 z"},".":{"x_min":0,"x_max":186,"ha":186,"o":"m 94 0 l 0 0 l 0 106 l 94 106 l 94 0 l 94 0 z"},"p":{"x_min":0,"x_max":384,"ha":384,"o":"m 94 1 l 0 1 l 0 738 l 153 738 q 247 738 296 683 q 341 630 341 531 q 341 430 296 378 q 248 322 153 322 l 94 322 z m 94 417 l 153 417 q 192 417 206 426 q 220 435 224 440 q 246 463 246 531 q 246 567 240 589 q 234 611 222 623 q 211 635 194 639 q 176 643 153 643 l 94 643 z"},"X":{"x_min":0,"x_max":498,"ha":498,"o":"m 454 737 l 279 369 l 452 0 l 348 0 l 227 258 l 105 0 l 0 0 l 174 369 l 3 737 l 108 737 l 227 480 l 349 737 l 454 737 z"},"*":{"x_min":0,"x_max":368,"ha":368,"o":"m 328 591 l 245 560 l 308 488 l 237 426 l 164 508 l 91 426 l 20 488 l 83 560 l 0 591 l 33 679 l 117 648 l 117 738 l 211 738 l 211 648 l 295 679 l 328 591 z"},"Y":{"x_min":0,"x_max":506,"ha":506,"o":"m 377 737 l 485 737 l 274 357 l 274 0 l 180 0 l 180 357 l -30 737 l 78 737 l 227 467 l 377 737 z"},"c":{"x_min":0,"x_max":388,"ha":388,"o":"m 175 0 q 148 0 127 6 q 106 11 90 20 q 73 28 62 38 q 50 49 42 59 q 0 113 0 211 l 0 527 q 0 625 42 679 q 58 699 90 718 q 121 737 175 737 q 229 737 260 718 q 291 699 307 679 q 350 624 350 527 l 350 480 l 255 480 l 255 527 q 255 570 246 594 q 238 618 226 628 q 213 639 199 641 q 185 643 175 643 q 164 643 150 641 q 137 639 124 628 q 111 618 102 594 q 94 570 94 527 l 94 211 q 94 146 117 117 q 122 110 135 102 q 148 94 175 94 q 202 94 214 102 q 227 110 233 117 q 255 147 255 211 l 255 258 l 350 258 l 350 211 q 350 114 307 59 q 291 39 260 20 q 229 0 175 0 z"},"!":{"x_min":0,"x_max":146,"ha":146,"o":"m 0 739 l 94 739 l 94 163 l 0 163 z m 0 2 l 0 108 l 94 108 l 94 2 z"},"/":{"x_min":0,"x_max":417,"ha":417,"o":"m 273 737 l 374 737 l 101 0 l 0 0 l 273 737 z"},"[":{"x_min":0,"x_max":833,"ha":833,"o":""},"6":{"x_min":0,"x_max":368,"ha":368,"o":"m 156 0 q 80 0 37 58 q 0 107 0 189 l 0 285 l 0 286 l 0 485 q 0 595 33 658 q 53 696 84 716 q 116 737 156 737 q 194 737 224 723 q 255 709 276 681 q 313 630 313 552 l 313 520 l 218 520 l 218 552 q 218 601 200 624 q 195 630 186 636 q 176 643 156 643 q 135 643 123 625 q 111 607 104 582 q 98 556 96 530 q 94 503 94 485 l 94 478 q 121 492 156 492 q 235 492 277 432 q 313 379 313 285 l 313 211 q 313 164 302 125 q 290 86 270 58 q 249 30 220 15 q 191 0 156 0 z m 94 286 l 94 189 q 94 139 113 114 q 118 108 127 101 q 136 94 156 94 q 174 94 186 106 q 198 118 205 136 q 212 154 215 174 q 218 195 218 211 l 218 285 q 218 327 211 350 q 204 373 194 384 q 185 394 174 396 q 163 398 156 398 q 134 398 122 382 q 110 367 104 348 q 98 328 96 310 q 94 292 94 286 z"},"r":{"x_min":0,"x_max":417,"ha":417,"o":"m 286 363 q 313 337 328 301 q 342 265 342 219 l 342 1 l 247 1 l 247 219 q 247 316 153 316 l 106 316 l 94 316 l 94 1 l 0 1 l 0 738 l 153 738 q 248 738 296 682 q 340 631 340 528 q 340 426 296 373 q 294 371 292 368 q 289 365 286 363 z m 153 411 q 191 411 206 420 q 220 429 224 434 q 246 462 246 528 q 246 565 240 588 q 234 610 222 622 q 211 635 194 639 q 176 643 153 643 l 94 643 l 94 411 l 106 411 z"},"2":{"x_min":0,"x_max":360,"ha":360,"o":"m 313 0 l 265 0 l 156 0 l 0 0 l 0 47 q 0 93 8 130 q 17 168 33 203 q 49 238 70 272 q 91 306 117 345 q 138 375 156 399 q 170 418 182 434 q 193 450 201 466 q 209 483 214 502 q 218 520 218 544 q 218 553 216 570 q 214 586 208 602 q 201 619 189 631 q 177 643 156 643 q 148 643 138 642 q 127 640 117 630 q 107 621 100 600 q 94 579 94 541 l 94 493 l 0 493 l 0 541 q 0 631 37 681 q 51 701 80 719 q 108 737 156 737 q 190 737 218 724 q 247 710 267 686 q 287 661 299 626 q 311 591 312 549 l 313 549 l 313 541 l 312 541 q 311 506 304 478 q 297 451 286 428 q 275 404 261 384 q 247 363 232 343 q 223 331 214 318 q 205 306 196 292 q 175 260 158 234 q 141 208 129 184 q 117 161 110 140 q 102 118 98 94 l 156 94 l 265 94 l 313 94 z"},"{":{"x_min":0,"x_max":833,"ha":833,"o":""},"9":{"x_min":0,"x_max":368,"ha":368,"o":"m 156 0 q 118 0 88 15 q 57 30 36 59 q 0 110 0 194 l 0 226 l 94 226 l 94 194 q 94 156 102 136 q 109 116 120 106 q 130 97 140 96 q 150 94 156 94 q 176 94 188 110 q 201 127 208 151 q 214 175 216 202 q 218 229 218 251 l 218 258 q 188 244 156 244 q 77 244 36 305 q 0 359 0 454 l 0 528 q 0 612 35 668 q 56 702 87 720 q 118 737 156 737 q 234 737 276 681 q 313 630 313 550 l 313 454 l 313 452 l 313 251 q 313 196 304 152 q 296 109 280 78 q 260 40 228 20 q 196 0 156 0 z m 156 643 q 133 643 120 626 q 108 610 102 590 q 96 570 95 551 q 94 532 94 528 l 94 454 q 94 411 101 388 q 108 364 118 354 q 127 343 138 341 q 148 339 156 339 q 178 339 190 354 q 203 370 209 390 q 215 410 216 428 q 218 447 218 453 l 218 550 q 218 585 210 604 q 203 623 193 632 q 183 640 172 642 q 162 643 156 643 z"}," ":{"x_min":0,"x_max":308,"ha":308,"o":""},"I":{"x_min":0,"x_max":202,"ha":202,"o":"m 124 0 l 30 0 l 30 737 l 124 737 l 124 0 l 124 0 z"},"H":{"x_min":0,"x_max":409,"ha":409,"o":"m 236 737 l 331 737 l 331 0 l 236 0 l 236 321 l 94 321 l 94 0 l 0 0 l 0 737 l 94 737 l 94 416 l 236 416 l 236 737 z"},"4":{"x_min":0,"x_max":380,"ha":380,"o":"m 230 737 l 316 737 l 316 0 l 222 0 l 222 206 l 0 206 l 0 300 z m 222 300 l 222 520 l 108 300 z"},"~":{"x_min":0,"x_max":833,"ha":833,"o":""},"D":{"x_min":0,"x_max":392,"ha":392,"o":"m 147 0 l 0 0 l 0 737 l 147 737 q 242 737 290 678 q 334 625 334 524 l 334 214 q 334 113 290 59 q 242 0 147 0 z m 94 94 l 147 94 q 165 94 182 98 q 198 101 210 113 q 223 125 231 149 q 239 173 239 214 l 239 524 q 239 565 231 589 q 223 613 210 625 q 198 637 182 640 q 165 643 147 643 l 94 643 z"},"^":{"x_min":0,"x_max":833,"ha":833,"o":""},"0":{"x_min":0,"x_max":376,"ha":376,"o":"m 156 0 q 76 0 35 64 q 0 119 0 213 l 0 526 q 0 621 35 674 q 76 737 156 737 q 236 737 277 674 q 313 621 313 526 l 313 213 q 313 118 277 64 q 236 0 156 0 z m 156 643 q 150 643 140 641 q 129 639 119 628 q 109 617 102 594 q 94 570 94 526 l 94 213 q 94 168 102 144 q 109 120 119 109 q 129 98 140 96 q 150 94 156 94 q 162 94 172 96 q 183 98 193 109 q 203 120 210 144 q 218 168 218 213 l 218 526 q 218 570 210 594 q 203 617 193 628 q 183 639 172 641 q 162 643 156 643 z"},"F":{"x_min":0,"x_max":372,"ha":372,"o":"m 305 643 l 94 643 l 94 416 l 305 416 l 305 322 l 94 322 l 94 0 l 0 0 l 0 737 l 305 737 l 305 643 z"},"`":{"x_min":0,"x_max":158,"ha":158,"o":"m 0 739 l 94 739 l 94 588 l 0 588 z m 35 623 l 59 623 l 59 703 l 35 703 z"},"k":{"x_min":0,"x_max":449,"ha":449,"o":"m 410 1 l 302 1 l 134 303 l 95 242 l 95 1 l 1 1 l 1 268 l 0 268 l 1 270 l 1 738 l 95 738 l 95 416 l 304 738 l 417 738 l 193 393 l 410 1 z"},"u":{"x_min":0,"x_max":405,"ha":405,"o":"m 165 1 q 115 1 85 18 q 55 36 40 56 q 0 105 0 197 l 0 738 l 94 738 l 94 197 q 94 159 102 138 q 109 117 120 108 q 131 98 143 96 q 155 95 165 95 q 175 95 187 96 q 199 98 210 108 q 221 117 228 138 q 236 159 236 197 l 236 738 l 330 738 l 330 197 q 330 105 290 56 q 275 36 245 18 q 215 1 165 1 z"},"]":{"x_min":0,"x_max":833,"ha":833,"o":""},"U":{"x_min":0,"x_max":405,"ha":405,"o":"m 165 1 q 115 1 85 18 q 55 36 40 56 q 0 105 0 197 l 0 738 l 94 738 l 94 197 q 94 159 102 138 q 109 117 120 108 q 131 98 143 96 q 155 95 165 95 q 175 95 187 96 q 199 98 210 108 q 221 117 228 138 q 236 159 236 197 l 236 738 l 330 738 l 330 197 q 330 105 290 56 q 275 36 245 18 q 215 1 165 1 z"},"o":{"x_min":0,"x_max":405,"ha":405,"o":"m 175 1 q 122 1 90 20 q 58 39 42 59 q 0 113 0 211 l 0 528 q 0 626 42 680 q 50 690 62 700 q 73 710 90 718 q 106 727 127 732 q 148 738 175 738 q 229 738 260 719 q 292 700 308 680 q 350 626 350 528 l 350 211 q 350 113 308 59 q 292 39 260 20 q 229 1 175 1 z m 175 643 q 164 643 150 641 q 137 639 124 628 q 111 618 102 594 q 94 571 94 528 l 94 211 q 94 167 102 144 q 111 120 124 110 q 137 99 150 97 q 164 95 175 95 q 185 95 199 97 q 213 99 226 110 q 239 120 248 144 q 256 167 256 211 l 256 528 q 256 571 248 594 q 239 618 226 628 q 213 639 199 641 q 185 643 175 643 z"},"N":{"x_min":0,"x_max":425,"ha":425,"o":"m 94 447 l 94 1 l 0 1 l 0 738 l 79 738 l 259 292 l 259 738 l 354 738 l 354 1 l 274 1 l 94 447 z"},"+":{"x_min":0,"x_max":457,"ha":457,"o":"m 387 417 l 387 323 l 241 323 l 241 176 l 146 176 l 146 323 l 0 323 l 0 417 l 146 417 l 146 563 l 241 563 l 241 417 l 387 417 z"},"G":{"x_min":0,"x_max":413,"ha":413,"o":"m 175 0 q 122 0 90 19 q 59 38 43 58 q 0 111 0 210 l 0 528 q 0 627 43 680 q 88 737 175 737 q 263 737 308 680 q 351 627 351 528 l 351 481 l 256 481 l 256 528 q 256 568 249 591 q 242 614 230 626 q 219 637 204 640 q 190 643 175 643 q 160 643 146 640 q 131 637 120 626 q 108 614 101 591 q 94 568 94 528 l 94 210 q 94 166 102 142 q 111 119 124 108 q 137 98 150 96 q 164 94 175 94 q 186 94 200 96 q 214 98 226 108 q 239 119 248 142 q 256 166 256 210 l 256 266 l 142 266 l 142 361 l 351 361 l 351 210 q 351 111 308 58 q 292 38 260 19 q 229 0 175 0 z"},"q":{"x_min":0,"x_max":405,"ha":405,"o":"m 296 -44 l 248 14 q 233 8 215 4 q 197 0 175 0 q 148 0 127 6 q 106 11 90 20 q 73 29 62 40 q 50 51 42 61 q 0 116 0 214 l 0 531 q 0 598 18 639 q 36 680 62 702 q 89 724 120 731 q 150 738 175 738 q 199 738 230 731 q 260 724 287 702 q 314 680 332 639 q 350 598 350 531 l 350 214 q 350 130 318 77 l 419 -44 z m 182 95 l 111 183 l 229 183 l 250 157 q 255 182 255 214 l 255 531 q 255 570 248 592 q 241 614 230 626 q 218 637 204 640 q 190 643 175 643 q 160 643 146 640 q 131 637 120 626 q 108 614 101 592 q 94 570 94 531 l 94 214 q 94 148 117 119 q 123 111 136 103 q 148 95 175 95 z"},"d":{"x_min":0,"x_max":392,"ha":392,"o":"m 147 0 l 0 0 l 0 737 l 147 737 q 242 737 290 678 q 334 625 334 524 l 334 214 q 334 113 290 59 q 242 0 147 0 z m 94 94 l 147 94 q 165 94 182 98 q 198 101 210 113 q 223 125 231 149 q 239 173 239 214 l 239 524 q 239 565 231 589 q 223 613 210 625 q 198 637 182 640 q 165 643 147 643 l 94 643 z"},"1":{"x_min":0,"x_max":275,"ha":275,"o":"m 118 737 l 209 737 l 209 0 l 115 0 l 115 566 l 73 508 l 0 569 l 118 737 z"},"5":{"x_min":0,"x_max":372,"ha":372,"o":"m 94 643 l 94 471 q 122 483 156 483 q 205 483 234 464 q 263 444 277 424 q 313 371 313 279 l 313 207 q 313 125 278 70 q 257 36 226 18 q 194 0 156 0 q 121 0 91 14 q 61 28 39 54 q 20 76 10 103 q 0 130 0 157 l 0 173 l 94 173 l 94 157 q 94 151 97 140 q 100 129 108 119 q 115 109 126 102 q 138 94 156 94 q 174 94 186 106 q 198 117 205 134 q 212 152 215 172 q 218 191 218 207 l 218 279 q 218 318 212 339 q 206 360 199 369 q 194 377 185 382 q 176 388 156 388 q 136 388 127 382 q 118 375 113 369 q 94 344 94 295 l 94 263 l 94 262 l 0 262 l 0 263 l 0 295 l 0 737 l 94 737 l 313 737 l 313 643 z"}}}
